<mxfile host="app.diagrams.net" modified="2023-09-07T19:21:57.080Z" agent="Mozilla/5.0 (Macintosh; Intel Mac OS X 10_15_7) AppleWebKit/537.36 (KHTML, like Gecko) Chrome/114.0.0.0 Safari/537.36" etag="6Q0vvpcL3YARPa-2mKpq" version="21.7.2" type="github">
  <diagram name="Page-1" id="A-a1IZMnN2A81CJ82bNA">
    <mxGraphModel dx="954" dy="591" grid="1" gridSize="10" guides="1" tooltips="1" connect="1" arrows="1" fold="1" page="1" pageScale="1" pageWidth="850" pageHeight="1100" math="0" shadow="0">
      <root>
        <mxCell id="0" />
        <mxCell id="1" parent="0" />
        <mxCell id="VL0jRfip9Yw0aysPLbHK-6" value="služba rozpoznávania ECV" style="rounded=0;whiteSpace=wrap;html=1;" parent="1" vertex="1">
          <mxGeometry x="310" y="30" width="120" height="60" as="geometry" />
        </mxCell>
        <mxCell id="VL0jRfip9Yw0aysPLbHK-11" value="" style="swimlane;startSize=0;" parent="1" vertex="1">
          <mxGeometry x="30" y="120" width="550" height="380" as="geometry" />
        </mxCell>
        <mxCell id="VL0jRfip9Yw0aysPLbHK-5" value="Kamerovy system" style="rounded=0;whiteSpace=wrap;html=1;" parent="VL0jRfip9Yw0aysPLbHK-11" vertex="1">
          <mxGeometry x="10" y="60" width="120" height="60" as="geometry" />
        </mxCell>
        <mxCell id="VL0jRfip9Yw0aysPLbHK-2" value="Application" style="rounded=0;whiteSpace=wrap;html=1;" parent="VL0jRfip9Yw0aysPLbHK-11" vertex="1">
          <mxGeometry x="310" y="200" width="120" height="60" as="geometry" />
        </mxCell>
        <mxCell id="VL0jRfip9Yw0aysPLbHK-21" value="1" style="text;html=1;strokeColor=none;fillColor=none;align=center;verticalAlign=middle;whiteSpace=wrap;rounded=0;" parent="VL0jRfip9Yw0aysPLbHK-11" vertex="1">
          <mxGeometry x="90" y="15" width="60" height="30" as="geometry" />
        </mxCell>
        <mxCell id="VL0jRfip9Yw0aysPLbHK-31" value="4" style="text;html=1;strokeColor=none;fillColor=none;align=center;verticalAlign=middle;whiteSpace=wrap;rounded=0;" parent="VL0jRfip9Yw0aysPLbHK-11" vertex="1">
          <mxGeometry x="270" y="90" width="60" height="30" as="geometry" />
        </mxCell>
        <mxCell id="VL0jRfip9Yw0aysPLbHK-32" value="5" style="text;html=1;strokeColor=none;fillColor=none;align=center;verticalAlign=middle;whiteSpace=wrap;rounded=0;" parent="VL0jRfip9Yw0aysPLbHK-11" vertex="1">
          <mxGeometry x="220" y="200" width="60" height="30" as="geometry" />
        </mxCell>
        <mxCell id="VL0jRfip9Yw0aysPLbHK-33" value="6" style="text;html=1;strokeColor=none;fillColor=none;align=center;verticalAlign=middle;whiteSpace=wrap;rounded=0;" parent="VL0jRfip9Yw0aysPLbHK-11" vertex="1">
          <mxGeometry x="350" y="260" width="60" height="30" as="geometry" />
        </mxCell>
        <mxCell id="VL0jRfip9Yw0aysPLbHK-1" value="Database" style="shape=cylinder3;whiteSpace=wrap;html=1;boundedLbl=1;backgroundOutline=1;size=15;" parent="VL0jRfip9Yw0aysPLbHK-11" vertex="1">
          <mxGeometry x="120" y="190" width="60" height="80" as="geometry" />
        </mxCell>
        <mxCell id="VL0jRfip9Yw0aysPLbHK-38" value="" style="endArrow=classic;startArrow=classic;html=1;rounded=0;exitX=1;exitY=0.5;exitDx=0;exitDy=0;exitPerimeter=0;entryX=0;entryY=0.5;entryDx=0;entryDy=0;" parent="VL0jRfip9Yw0aysPLbHK-11" source="VL0jRfip9Yw0aysPLbHK-1" target="VL0jRfip9Yw0aysPLbHK-2" edge="1">
          <mxGeometry width="50" height="50" relative="1" as="geometry">
            <mxPoint x="360" y="220" as="sourcePoint" />
            <mxPoint x="410" y="170" as="targetPoint" />
          </mxGeometry>
        </mxCell>
        <mxCell id="VL0jRfip9Yw0aysPLbHK-8" value="brány" style="rounded=0;whiteSpace=wrap;html=1;" parent="VL0jRfip9Yw0aysPLbHK-11" vertex="1">
          <mxGeometry x="310" y="310" width="120" height="60" as="geometry" />
        </mxCell>
        <mxCell id="VL0jRfip9Yw0aysPLbHK-40" value="7" style="text;html=1;strokeColor=none;fillColor=none;align=center;verticalAlign=middle;whiteSpace=wrap;rounded=0;" parent="VL0jRfip9Yw0aysPLbHK-11" vertex="1">
          <mxGeometry x="450" y="200" width="60" height="30" as="geometry" />
        </mxCell>
        <mxCell id="VL0jRfip9Yw0aysPLbHK-44" value="" style="endArrow=classic;startArrow=classic;html=1;rounded=0;entryX=0.351;entryY=0.057;entryDx=0;entryDy=0;entryPerimeter=0;" parent="VL0jRfip9Yw0aysPLbHK-11" source="VL0jRfip9Yw0aysPLbHK-8" target="VL0jRfip9Yw0aysPLbHK-33" edge="1">
          <mxGeometry width="50" height="50" relative="1" as="geometry">
            <mxPoint x="370" y="210" as="sourcePoint" />
            <mxPoint x="370" y="270" as="targetPoint" />
          </mxGeometry>
        </mxCell>
        <mxCell id="VL0jRfip9Yw0aysPLbHK-13" value="gateway&lt;br&gt;" style="ellipse;whiteSpace=wrap;html=1;aspect=fixed;" parent="1" vertex="1">
          <mxGeometry x="200" y="90" width="50" height="50" as="geometry" />
        </mxCell>
        <mxCell id="VL0jRfip9Yw0aysPLbHK-20" value="" style="endArrow=classic;html=1;rounded=0;exitX=0.5;exitY=0;exitDx=0;exitDy=0;entryX=0;entryY=1;entryDx=0;entryDy=0;" parent="1" source="VL0jRfip9Yw0aysPLbHK-5" target="VL0jRfip9Yw0aysPLbHK-13" edge="1">
          <mxGeometry width="50" height="50" relative="1" as="geometry">
            <mxPoint x="400" y="330" as="sourcePoint" />
            <mxPoint x="450" y="280" as="targetPoint" />
          </mxGeometry>
        </mxCell>
        <mxCell id="VL0jRfip9Yw0aysPLbHK-25" value="" style="endArrow=classic;html=1;rounded=0;entryX=0;entryY=0.25;entryDx=0;entryDy=0;exitX=1;exitY=0;exitDx=0;exitDy=0;" parent="1" source="VL0jRfip9Yw0aysPLbHK-13" target="VL0jRfip9Yw0aysPLbHK-6" edge="1">
          <mxGeometry width="50" height="50" relative="1" as="geometry">
            <mxPoint x="400" y="330" as="sourcePoint" />
            <mxPoint x="450" y="280" as="targetPoint" />
            <Array as="points" />
          </mxGeometry>
        </mxCell>
        <mxCell id="VL0jRfip9Yw0aysPLbHK-26" value="" style="endArrow=classic;html=1;rounded=0;entryX=1;entryY=0.28;entryDx=0;entryDy=0;entryPerimeter=0;exitX=0;exitY=0.5;exitDx=0;exitDy=0;" parent="1" source="VL0jRfip9Yw0aysPLbHK-6" target="VL0jRfip9Yw0aysPLbHK-13" edge="1">
          <mxGeometry width="50" height="50" relative="1" as="geometry">
            <mxPoint x="400" y="330" as="sourcePoint" />
            <mxPoint x="450" y="280" as="targetPoint" />
          </mxGeometry>
        </mxCell>
        <mxCell id="VL0jRfip9Yw0aysPLbHK-27" value="2" style="text;html=1;strokeColor=none;fillColor=none;align=center;verticalAlign=middle;whiteSpace=wrap;rounded=0;" parent="1" vertex="1">
          <mxGeometry x="240" y="45" width="60" height="30" as="geometry" />
        </mxCell>
        <mxCell id="VL0jRfip9Yw0aysPLbHK-28" value="3" style="text;html=1;strokeColor=none;fillColor=none;align=center;verticalAlign=middle;whiteSpace=wrap;rounded=0;" parent="1" vertex="1">
          <mxGeometry x="260" y="75" width="60" height="30" as="geometry" />
        </mxCell>
        <mxCell id="VL0jRfip9Yw0aysPLbHK-30" value="" style="endArrow=classic;html=1;rounded=0;exitX=1;exitY=1;exitDx=0;exitDy=0;entryX=0.5;entryY=0;entryDx=0;entryDy=0;" parent="1" source="VL0jRfip9Yw0aysPLbHK-13" target="VL0jRfip9Yw0aysPLbHK-2" edge="1">
          <mxGeometry width="50" height="50" relative="1" as="geometry">
            <mxPoint x="400" y="330" as="sourcePoint" />
            <mxPoint x="450" y="280" as="targetPoint" />
          </mxGeometry>
        </mxCell>
        <mxCell id="VL0jRfip9Yw0aysPLbHK-34" value="gateway" style="ellipse;whiteSpace=wrap;html=1;aspect=fixed;" parent="1" vertex="1">
          <mxGeometry x="560" y="325" width="50" height="50" as="geometry" />
        </mxCell>
        <mxCell id="VL0jRfip9Yw0aysPLbHK-36" value="" style="endArrow=classic;startArrow=classic;html=1;rounded=0;entryX=1;entryY=0.5;entryDx=0;entryDy=0;exitX=0;exitY=0.5;exitDx=0;exitDy=0;" parent="1" source="VL0jRfip9Yw0aysPLbHK-34" target="VL0jRfip9Yw0aysPLbHK-2" edge="1">
          <mxGeometry width="50" height="50" relative="1" as="geometry">
            <mxPoint x="640" y="350" as="sourcePoint" />
            <mxPoint x="470" y="350" as="targetPoint" />
          </mxGeometry>
        </mxCell>
        <mxCell id="VL0jRfip9Yw0aysPLbHK-12" value="private cloud" style="ellipse;shape=cloud;whiteSpace=wrap;html=1;" parent="1" vertex="1">
          <mxGeometry x="540" y="120" width="70" height="60" as="geometry" />
        </mxCell>
        <mxCell id="VL0jRfip9Yw0aysPLbHK-41" value="Users" style="ellipse;shape=cloud;whiteSpace=wrap;html=1;" parent="1" vertex="1">
          <mxGeometry x="690" y="310" width="120" height="80" as="geometry" />
        </mxCell>
        <mxCell id="VL0jRfip9Yw0aysPLbHK-42" value="" style="endArrow=classic;startArrow=classic;html=1;rounded=0;exitX=1;exitY=0.5;exitDx=0;exitDy=0;" parent="1" source="VL0jRfip9Yw0aysPLbHK-34" edge="1">
          <mxGeometry width="50" height="50" relative="1" as="geometry">
            <mxPoint x="400" y="330" as="sourcePoint" />
            <mxPoint x="700" y="350" as="targetPoint" />
          </mxGeometry>
        </mxCell>
        <mxCell id="VL0jRfip9Yw0aysPLbHK-43" value="8" style="text;html=1;strokeColor=none;fillColor=none;align=center;verticalAlign=middle;whiteSpace=wrap;rounded=0;" parent="1" vertex="1">
          <mxGeometry x="630" y="320" width="60" height="30" as="geometry" />
        </mxCell>
      </root>
    </mxGraphModel>
  </diagram>
</mxfile>
